# Blender v2.82 (sub 7) OBJ File: 'arrow.blend'
# www.blender.org
mtllib arrow.mtl
o Cube
v 0.881238 25.839436 -1.000000
v 0.881238 25.958199 -1.118762
v 1.000000 26.076962 -1.000195
v 1.000000 25.839436 -0.881238
v 0.881238 25.906427 -1.051771
v 0.947636 25.931067 -1.000994
v 0.948229 26.009970 -1.059479
v 1.000000 25.958206 -0.948316
v 0.948229 25.839436 -0.948229
v 0.881238 0.000000 -0.881238
v 0.881238 0.118762 -1.000000
v 1.000000 0.118762 -0.881238
v 0.881238 0.051771 -0.948229
v 0.929162 0.070838 -0.929162
v 0.948229 0.118762 -0.948229
v 0.948229 0.051771 -0.881238
v 1.000000 25.839436 0.881238
v 1.000000 26.076962 1.000195
v 0.881238 25.958199 1.118762
v 0.881238 25.839436 1.000000
v 1.000000 25.958204 0.948316
v 0.947636 25.931065 1.000994
v 0.948229 26.009970 1.059479
v 0.881238 25.906427 1.051771
v 0.948229 25.839436 0.948229
v 1.000000 0.118762 0.881238
v 0.881238 0.118762 1.000000
v 0.881238 0.000000 0.881238
v 0.948229 0.118762 0.948229
v 0.929162 0.070838 0.929162
v 0.881238 0.051771 0.948229
v 0.948229 0.051771 0.881238
v -0.881238 25.839436 -1.000000
v -1.000000 25.839436 -0.881238
v -1.000000 26.076962 -1.000000
v -0.881238 25.958199 -1.118762
v -0.948229 25.839436 -0.948229
v -0.947636 25.931065 -1.000951
v -1.000000 25.958204 -0.948232
v -0.948229 26.009970 -1.059381
v -0.881238 25.906427 -1.051771
v -1.000000 0.118762 -0.881238
v -0.881238 0.118762 -1.000000
v -0.881238 0.000000 -0.881238
v -0.948229 0.118762 -0.948229
v -0.929162 0.070838 -0.929162
v -0.881238 0.051771 -0.948229
v -0.948229 0.051771 -0.881238
v -1.000000 25.839436 0.881238
v -0.881238 25.839436 1.000000
v -0.881238 25.958199 1.118762
v -1.000000 26.076962 1.000000
v -0.948229 25.839436 0.948229
v -0.947636 25.931067 1.000951
v -0.881238 25.906427 1.051771
v -0.948229 26.009970 1.059381
v -1.000000 25.958204 0.948232
v -0.881238 0.000000 0.881238
v -0.881238 0.118762 1.000000
v -1.000000 0.118762 0.881238
v -0.881238 0.051771 0.948229
v -0.929162 0.070838 0.929162
v -0.948229 0.118762 0.948229
v -0.948229 0.051771 0.881238
v -1.000000 31.125731 0.901509
v -0.881238 31.192095 1.000509
v -0.948229 31.163166 0.957288
v 0.881238 32.556847 -0.043898
v 0.881238 32.555305 0.090971
v 1.000000 32.444695 0.022276
v 0.881238 32.569477 0.023690
v 0.929162 32.533150 0.023279
v 0.948229 32.506214 0.061016
v 0.948229 32.507084 -0.015059
v -0.881238 31.192095 -1.000509
v -1.000000 31.125237 -0.901839
v -0.948229 31.162951 -0.957432
v 0.881238 25.958199 4.417264
v 1.000000 26.076962 4.312768
v 0.881238 26.056683 4.469653
v 0.948229 26.011267 4.369269
v 0.929162 26.022987 4.414229
v 0.948229 26.066820 4.398819
v 0.881238 25.999828 4.457764
v -0.881238 26.056606 4.469542
v -1.000000 26.076962 4.312465
v -0.881238 25.958199 4.417264
v -0.948229 26.066782 4.398613
v -0.929162 26.022964 4.414107
v -0.948229 26.011272 4.369125
v -0.881238 25.999790 4.457729
v -0.881238 26.056606 -4.469543
v -0.881238 25.958199 -4.417264
v -1.000000 26.076962 -4.312465
v -0.881238 25.999790 -4.457728
v -0.929162 26.022964 -4.414106
v -0.948229 26.011272 -4.369124
v -0.948229 26.066782 -4.398613
v 0.881238 25.958199 -4.417264
v 0.881238 26.056683 -4.469653
v 1.000000 26.076962 -4.312768
v 0.881238 25.999828 -4.457764
v 0.929162 26.022987 -4.414230
v 0.948229 26.066820 -4.398820
v 0.948229 26.011267 -4.369269
v 1.000000 31.125732 0.910081
v 0.881238 31.192095 1.008064
v 0.948229 31.163166 0.965417
v -0.881238 32.556572 -0.043692
v -1.000000 32.443478 0.022059
v -0.881238 32.555046 0.090396
v -0.948229 32.506355 -0.015042
v -0.929162 32.532631 0.023083
v -0.948229 32.505493 0.060594
v -0.881238 32.569290 0.023506
v 1.000000 31.125233 -0.910412
v 0.881238 31.192095 -1.008064
v 0.948229 31.162947 -0.965559
vt 0.625000 0.750000
vt 0.625000 0.750000
vt 0.625000 0.750000
vt 0.625000 0.985155
vt 0.625000 0.764845
vt 0.625000 0.764845
vt 0.625000 0.985155
vt 0.625000 0.250000
vt 0.625000 0.000000
vt 0.625000 0.012311
vt 0.625000 0.237730
vt 0.376498 0.764845
vt 0.623502 0.764845
vt 0.623502 0.985155
vt 0.376498 0.985155
vt 0.625000 0.485155
vt 0.625000 0.264845
vt 0.625000 0.264845
vt 0.625000 0.485155
vt 0.376498 0.514845
vt 0.623502 0.514845
vt 0.623502 0.735155
vt 0.376498 0.735155
vt 0.625000 0.485155
vt 0.625000 0.264845
vt 0.625000 0.264845
vt 0.625000 0.485155
vt 0.625000 0.250000
vt 0.625000 0.250000
vt 0.139845 0.514845
vt 0.360155 0.514845
vt 0.360155 0.735155
vt 0.139845 0.735155
vt 0.625000 0.231873
vt 0.625000 0.006497
vt 0.625000 0.231872
vt 0.625000 0.264845
vt 0.625000 0.485155
vt 0.625000 0.732257
vt 0.625000 0.506588
vt 0.625000 0.732257
vt 0.625000 0.000000
vt 0.625000 0.000000
vt 0.376498 0.014845
vt 0.623502 0.014845
vt 0.623502 0.235155
vt 0.376498 0.235155
vt 0.625000 0.500000
vt 0.625000 0.500000
vt 0.625000 0.500000
vt 0.625000 0.512160
vt 0.625000 0.737799
vt 0.625000 0.985155
vt 0.625000 0.764845
vt 0.625000 0.764845
vt 0.625000 0.985155
vt 0.625000 0.985155
vt 0.625000 0.764845
vt 0.623502 0.485155
vt 0.625000 0.485155
vt 0.624914 0.498364
vt 0.623502 0.500000
vt 0.625000 0.500000
vt 0.625000 0.506460
vt 0.625000 0.492585
vt 0.360155 0.500000
vt 0.372346 0.502952
vt 0.375000 0.514845
vt 0.376498 0.485155
vt 0.376498 0.500000
vt 0.375000 0.485155
vt 0.625000 0.743540
vt 0.624914 0.751636
vt 0.623502 0.750000
vt 0.625000 0.750000
vt 0.625000 0.750000
vt 0.625000 0.764845
vt 0.376498 0.750000
vt 0.375298 0.750000
vt 0.375000 0.735155
vt 0.375000 0.764845
vt 0.360155 0.750000
vt 0.623502 0.264845
vt 0.623502 0.250000
vt 0.624914 0.251636
vt 0.625000 0.264845
vt 0.625000 0.243529
vt 0.625000 0.250000
vt 0.625000 0.250000
vt 0.376498 0.250000
vt 0.375893 0.250000
vt 0.375000 0.235155
vt 0.376498 0.264845
vt 0.375000 0.264845
vt 0.375000 0.258855
vt 0.125000 0.514845
vt 0.125000 0.508855
vt 0.139845 0.500000
vt 0.623502 0.000000
vt 0.624658 0.000000
vt 0.625000 0.006471
vt 0.625000 0.985155
vt 0.625000 0.993455
vt 0.623502 1.000000
vt 0.625000 1.000000
vt 0.625000 1.000000
vt 0.625000 0.000000
vt 0.625000 -0.007423
vt 0.139845 0.750000
vt 0.133855 0.750000
vt 0.125000 0.735155
vt 0.376498 1.000000
vt 0.375893 1.000000
vt 0.375000 0.985155
vt 0.375000 0.014845
vt 0.375000 0.008855
vt 0.376498 0.000000
vt 0.625000 0.485155
vt 0.625000 0.491145
vt 0.625000 0.500000
vt 0.625000 0.750000
vt 0.625000 0.750000
vt 0.625000 0.764845
vt 0.625000 0.730062
vt 0.625000 0.736126
vt 0.625000 0.750000
vt 0.625000 0.752952
vt 0.625000 0.764845
vt 0.625000 0.750000
vt 0.625000 1.000000
vt 0.625000 1.000000
vt 0.625000 0.985155
vt 0.625000 0.000000
vt 0.625000 0.000000
vt 0.625000 0.000000
vt 0.625000 0.991145
vt 0.625000 1.000000
vt 0.625000 0.264845
vt 0.625000 0.252952
vt 0.625000 0.250000
vt 0.625000 0.250000
vt 0.625000 0.485155
vt 0.625000 0.497048
vt 0.625000 0.500000
vt 0.625000 0.500000
vt 0.625000 0.250000
vt 0.625000 0.250000
vt 0.625000 0.264845
vt 0.625000 0.229595
vt 0.625000 0.235768
vt 0.625000 0.985155
vt 0.625000 0.991145
vt 0.625000 1.000000
vt 0.625000 0.500000
vt 0.625000 0.500143
vt 0.625000 0.250000
vt 0.625000 1.000000
vt 0.625000 0.000000
vt 0.625000 0.750000
vt 0.625000 0.000000
vn 1.0000 0.0000 0.0000
vn 0.0000 -1.0000 0.0000
vn -1.0000 0.0000 0.0000
vn 0.0000 0.0000 1.0000
vn -0.0018 0.5593 -0.8289
vn -0.0018 0.5756 -0.8177
vn -0.0020 0.5568 0.8307
vn -0.0018 0.5593 0.8289
vn 0.5970 -0.4399 -0.6709
vn 0.7040 -0.4935 -0.5106
vn 0.8098 -0.2879 -0.5112
vn 0.7484 -0.3267 -0.5772
vn 0.5109 -0.6913 -0.5109
vn 0.5109 -0.5109 -0.6913
vn 0.6913 -0.5109 -0.5109
vn 0.7484 -0.3267 0.5772
vn 0.8098 -0.2879 0.5112
vn 0.7040 -0.4935 0.5106
vn 0.5970 -0.4399 0.6709
vn 0.6913 -0.5109 0.5109
vn 0.5109 -0.5109 0.6913
vn 0.5109 -0.6913 0.5109
vn -0.5972 -0.4397 -0.6709
vn -0.7486 -0.3263 -0.5772
vn -0.8100 -0.2874 -0.5111
vn -0.7043 -0.4932 -0.5105
vn -0.6913 -0.5109 -0.5109
vn -0.5109 -0.5109 -0.6913
vn -0.5109 -0.6913 -0.5109
vn -0.7486 -0.3263 0.5772
vn -0.5972 -0.4397 0.6709
vn -0.7043 -0.4932 0.5106
vn -0.8100 -0.2874 0.5111
vn -0.5109 -0.6913 0.5109
vn -0.5109 -0.5109 0.6913
vn -0.6913 -0.5109 0.5109
vn 0.6174 0.7682 -0.1695
vn 0.6174 0.7641 0.1870
vn 0.7806 0.6250 0.0071
vn 0.7171 -0.5081 0.4771
vn 0.8513 -0.2464 0.4633
vn 0.7171 -0.1117 0.6880
vn -0.7176 -0.1108 0.6876
vn -0.8516 -0.2459 0.4629
vn -0.7176 -0.5077 0.4767
vn -0.7176 -0.1108 -0.6876
vn -0.7176 -0.5077 -0.4767
vn -0.8516 -0.2459 -0.4629
vn 0.7171 -0.5081 -0.4771
vn 0.7171 -0.1117 -0.6880
vn 0.8513 -0.2464 -0.4633
vn -0.6206 0.7653 -0.1710
vn -0.7830 0.6220 0.0070
vn -0.6206 0.7612 0.1884
vn -0.6115 -0.7913 0.0000
vn -0.7913 -0.6115 0.0000
vn 0.0000 -0.7913 -0.6115
vn 0.0000 -0.6115 -0.7913
vn 0.7913 0.0000 -0.6115
vn 0.6115 0.0000 -0.7913
vn -0.6115 0.0000 0.7913
vn -0.7913 0.0000 0.6115
vn 0.6115 0.0000 0.7913
vn 0.7913 0.0000 0.6115
vn -0.6115 0.0000 -0.7913
vn -0.7913 0.0000 -0.6115
vn 0.0000 -0.7913 0.6115
vn 0.0000 -0.6115 0.7913
vn 0.6115 -0.7913 0.0000
vn 0.7913 -0.6115 0.0000
vn 0.6125 0.4563 -0.6455
vn 0.7898 0.3541 -0.5009
vn -0.7905 0.3516 -0.5015
vn -0.6143 0.4531 -0.6460
vn -0.0000 -0.2041 0.9789
vn 0.0000 -0.6973 0.7168
vn -0.0000 -0.2041 -0.9789
vn 0.0000 -0.6973 -0.7168
vn -0.6143 0.4382 0.6562
vn -0.7905 0.3401 0.5093
vn 0.7880 0.3441 0.5106
vn 0.6154 0.4405 0.6536
vn 0.6124 0.4414 0.6558
vn 0.7897 0.3426 0.5089
vn 0.6154 0.4405 -0.6536
vn 0.7880 0.3441 -0.5106
vn -0.6163 -0.7875 0.0002
vn -0.7884 -0.6152 0.0001
vn 0.7884 -0.6151 0.0001
vn 0.6163 -0.7875 0.0002
vn -0.0001 0.9828 -0.1848
vn -0.0002 0.9783 0.2072
vn -0.6163 -0.7875 -0.0002
vn -0.7884 -0.6152 -0.0001
vn 0.7884 -0.6151 -0.0001
vn 0.6163 -0.7875 -0.0002
vn -0.7888 0.3440 0.5094
vn -0.6172 0.4404 0.6520
vn -0.6172 0.4404 -0.6520
vn -0.7888 0.3440 -0.5094
vn 0.0000 0.0000 -1.0000
usemtl Material
s off
f 18/1/1 106/2/1 79/3/1
f 51/4/2 19/5/2 78/6/2 87/7/2
f 35/8/3 52/9/3 65/10/3 76/11/3
f 27/12/4 20/13/4 50/14/4 59/15/4
f 2/16/2 36/17/2 93/18/2 99/19/2
f 12/20/1 4/21/1 17/22/1 26/23/1
f 100/24/5 92/25/5 75/26/5 117/27/5
f 35/8/3 76/28/3 94/29/3
f 44/30/2 10/31/2 28/32/2 58/33/2
f 76/34/3 65/35/3 110/36/3
f 117/27/6 75/26/6 109/37/6 68/38/6
f 106/39/1 116/40/1 70/41/1
f 65/42/3 52/9/3 86/43/3
f 60/44/3 49/45/3 34/46/3 42/47/3
f 116/48/1 3/49/1 101/50/1
f 18/1/1 3/49/1 116/51/1 106/52/1
f 66/53/7 107/54/7 69/55/7 111/56/7
f 85/57/8 80/58/8 107/54/8 66/53/8
f 1/59/9 5/60/9 6/61/9 9/62/9
f 2/16/10 7/63/10 6/61/10 5/60/10
f 3/49/11 8/64/11 6/61/11 7/65/11
f 4/21/12 9/62/12 6/61/12 8/64/12
f 10/31/13 13/66/13 14/67/13 16/68/13
f 11/69/14 15/70/14 14/67/14 13/71/14
f 12/20/15 16/68/15 14/67/15 15/70/15
f 17/22/16 21/72/16 22/73/16 25/74/16
f 18/1/17 23/75/17 22/73/17 21/76/17
f 19/5/18 24/77/18 22/73/18 23/75/18
f 20/13/19 25/74/19 22/73/19 24/77/19
f 26/23/20 29/78/20 30/79/20 32/80/20
f 27/12/21 31/81/21 30/79/21 29/78/21
f 28/32/22 32/80/22 30/79/22 31/82/22
f 33/83/23 37/84/23 38/85/23 41/86/23
f 34/46/24 39/87/24 38/85/24 37/84/24
f 35/8/25 40/88/25 38/85/25 39/89/25
f 36/17/26 41/86/26 38/85/26 40/88/26
f 42/47/27 45/90/27 46/91/27 48/92/27
f 43/93/28 47/94/28 46/95/28 45/90/28
f 44/30/29 48/96/29 46/97/29 47/98/29
f 49/45/30 53/99/30 54/100/30 57/101/30
f 50/14/31 55/102/31 54/103/31 53/104/31
f 51/4/32 56/105/32 54/106/32 55/102/32
f 52/9/33 57/101/33 54/107/33 56/108/33
f 58/33/34 61/109/34 62/110/34 64/111/34
f 59/15/35 63/112/35 62/113/35 61/114/35
f 60/44/36 64/115/36 62/116/36 63/117/36
f 68/38/37 71/118/37 72/119/37 74/120/37
f 69/55/38 73/121/38 72/122/38 71/123/38
f 70/41/39 74/124/39 72/125/39 73/121/39
f 78/6/40 81/126/40 82/127/40 84/128/40
f 79/3/41 83/129/41 82/127/41 81/126/41
f 80/58/42 84/128/42 82/127/42 83/129/42
f 85/57/43 88/130/43 89/131/43 91/132/43
f 86/43/44 90/133/44 89/134/44 88/135/44
f 87/7/45 91/132/45 89/136/45 90/137/45
f 92/25/46 95/138/46 96/139/46 98/140/46
f 93/18/47 97/141/47 96/139/47 95/138/47
f 94/29/48 98/140/48 96/139/48 97/141/48
f 99/19/49 102/142/49 103/143/49 105/144/49
f 100/24/50 104/145/50 103/143/50 102/142/50
f 101/50/51 105/144/51 103/143/51 104/145/51
f 109/37/52 112/146/52 113/147/52 115/148/52
f 110/36/53 114/149/53 113/150/53 112/146/53
f 111/56/54 115/151/54 113/152/54 114/153/54
f 44/30/55 58/33/55 64/111/55 48/96/55
f 48/92/56 64/115/56 60/44/56 42/47/56
f 10/31/57 44/30/57 47/98/57 13/66/57
f 13/71/58 47/94/58 43/93/58 11/69/58
f 4/21/59 12/20/59 15/70/59 9/62/59
f 9/62/60 15/70/60 11/69/60 1/59/60
f 59/15/61 50/14/61 53/104/61 63/112/61
f 63/117/62 53/99/62 49/45/62 60/44/62
f 20/13/63 27/12/63 29/78/63 25/74/63
f 25/74/64 29/78/64 26/23/64 17/22/64
f 33/83/65 43/93/65 45/90/65 37/84/65
f 37/84/66 45/90/66 42/47/66 34/46/66
f 19/5/67 51/4/67 55/102/67 24/77/67
f 24/77/68 55/102/68 50/14/68 20/13/68
f 3/49/1 18/1/1 21/72/1 8/64/1
f 8/64/1 21/72/1 17/22/1 4/21/1
f 58/33/67 28/32/67 31/82/67 61/109/67
f 61/114/68 31/81/68 27/12/68 59/15/68
f 52/9/3 35/8/3 39/87/3 57/101/3
f 57/101/3 39/87/3 34/46/3 49/45/3
f 36/17/57 2/16/57 5/60/57 41/86/57
f 41/86/58 5/60/58 1/59/58 33/83/58
f 28/32/69 10/31/69 16/68/69 32/80/69
f 32/80/70 16/68/70 12/20/70 26/23/70
f 117/27/71 68/38/71 74/120/71 118/154/71
f 118/155/72 74/124/72 70/41/72 116/40/72
f 76/34/73 110/36/73 112/146/73 77/156/73
f 77/156/74 112/146/74 109/37/74 75/26/74
f 80/58/75 85/57/75 91/132/75 84/128/75
f 84/128/76 91/132/76 87/7/76 78/6/76
f 92/25/77 100/24/77 102/142/77 95/138/77
f 95/138/78 102/142/78 99/19/78 93/18/78
f 66/53/79 111/56/79 114/153/79 67/157/79
f 67/158/80 114/149/80 110/36/80 65/35/80
f 79/3/81 106/2/81 108/159/81 83/129/81
f 83/129/82 108/159/82 107/54/82 80/58/82
f 69/55/83 107/54/83 108/159/83 73/121/83
f 73/121/84 108/159/84 106/39/84 70/41/84
f 100/24/85 117/27/85 118/154/85 104/145/85
f 104/145/86 118/154/86 116/48/86 101/50/86
f 51/4/87 87/7/87 90/137/87 56/105/87
f 56/160/88 90/133/88 86/43/88 52/9/88
f 18/1/89 79/3/89 81/126/89 23/75/89
f 23/75/90 81/126/90 78/6/90 19/5/90
f 68/38/91 109/37/91 115/148/91 71/118/91
f 71/123/92 115/151/92 111/56/92 69/55/92
f 93/18/93 36/17/93 40/88/93 97/141/93
f 97/141/94 40/88/94 35/8/94 94/29/94
f 101/50/95 3/49/95 7/63/95 105/144/95
f 105/144/96 7/63/96 2/16/96 99/19/96
f 65/42/97 86/43/97 88/135/97 67/158/97
f 67/157/98 88/130/98 85/57/98 66/53/98
f 75/26/99 92/25/99 98/140/99 77/156/99
f 77/156/100 98/140/100 94/29/100 76/28/100
f 43/93/101 33/83/101 1/59/101 11/69/101
